<?xml version="1.0" encoding="utf-8"?>
<!-- Generator: Adobe Illustrator 19.0.0, SVG Export Plug-In . SVG Version: 6.00 Build 0)  -->
<svg version="1.1" id="Layer_1" xmlns="http://www.w3.org/2000/svg" xmlns:xlink="http://www.w3.org/1999/xlink" x="0px" y="0px"
	 viewBox="0 0 500 500" style="enable-background:new 0 0 500 500;" xml:space="preserve">
<style type="text/css">
	.st0{fill:#EB3C00;}
</style>
<g transform="translate(-216.07358,-549.28882)">
	<g transform="matrix(1.8232952,0,0,1.8232952,-597.71681,-124.12247)">
		<g transform="translate(0,-91.137241)">
			<g transform="matrix(0.74069815,0,0,0.74069815,98.5698,-8.2505871)">
				<path id="XMLID_9_" class="st0" d="M517.6,844.7v-53l46.9-17.3l25.5,8.2v71.4l-25.5,7.7L517.6,844.7l46.9,5.6v-61.7l-30.6,7.1
					v41.8L517.6,844.7z"/>
				<path class="st0" d="M640,845.1c-7.4,0-13.3-2.4-17.7-7.3c-4.4-4.9-6.7-11.2-6.7-19c0-8.4,2.3-15.1,6.8-20
					c4.5-5,10.7-7.5,18.5-7.5c7.2,0,13,2.4,17.4,7.3c4.4,4.8,6.6,11.2,6.6,19c0,8.5-2.3,15.2-6.8,20.2
					C653.6,842.6,647.5,845.1,640,845.1L640,845.1z M640.4,796.8c-5.5,0-9.9,2-13.3,5.9c-3.4,3.9-5.1,9.1-5.1,15.5
					c0,6.4,1.7,11.6,5,15.5c3.3,3.9,7.7,5.9,13,5.9c5.7,0,10.2-1.9,13.5-5.6c3.3-3.7,4.9-8.9,4.9-15.7c0-6.9-1.6-12.2-4.8-15.9
					C650.5,798.6,646,796.8,640.4,796.8L640.4,796.8z"/>
				<path id="XMLID_6_" class="st0" d="M686.5,788.3c-3.4,0-6.2,1.1-8.4,3.4c-2.3,2.3-3.4,5.3-3.4,9.2v6h-6.3v5.1h6.3v32.1h5.9
					v-32.1h14.5v32.1h5.9v-32.1h8.7V807h-8.7v-5.7c0-5.3,2.1-7.9,6.2-7.9c1.5,0,2.8,0.3,4,1V789c-1.1-0.4-2.5-0.7-4.3-0.7
					c-3.4,0-6.2,1.1-8.4,3.4c-2.3,2.3-3.4,5.3-3.4,9.2v6h-14.5v-5.7c0-5.3,2.1-7.9,6.2-7.9c1.5,0,2.8,0.3,4,1V789
					C689.8,788.6,688.3,788.3,686.5,788.3L686.5,788.3z"/>
				<path class="st0" d="M718.5,797.5c-1.1,0-2-0.4-2.7-1.1c-0.8-0.7-1.1-1.6-1.1-2.8c0-1.1,0.4-2,1.1-2.8c0.8-0.7,1.7-1.1,2.7-1.1
					c1.1,0,2,0.4,2.8,1.1c0.8,0.7,1.1,1.7,1.1,2.8c0,1.1-0.4,2-1.1,2.7C720.5,797.2,719.5,797.5,718.5,797.5L718.5,797.5z
					 M721.4,844.2h-6V807h6V844.2z"/>
				<path id="XMLID_5_" class="st0" d="M755.2,842.5c-2.9,1.7-6.2,2.6-10.2,2.6c-5.3,0-9.6-1.7-12.8-5.2c-3.3-3.4-4.9-7.9-4.9-13.4
					c0-6.1,1.8-11,5.3-14.8c3.5-3.7,8.2-5.6,14.1-5.6c3.3,0,6.1,0.6,8.6,1.8v6.1c-2.8-1.9-5.7-2.9-8.9-2.9c-3.8,0-6.9,1.4-9.4,4.1
					c-2.4,2.7-3.6,6.3-3.6,10.7c0,4.4,1.1,7.8,3.4,10.3c2.3,2.5,5.4,3.8,9.2,3.8c3.2,0,6.3-1.1,9.2-3.2L755.2,842.5z"/>
				<path class="st0" d="M791.6,827.1h-26.3c0.1,4.1,1.2,7.3,3.3,9.6c2.1,2.3,5.1,3.4,8.8,3.4c4.2,0,8-1.4,11.5-4.1v5.6
					c-3.3,2.4-7.6,3.6-13,3.6c-5.3,0-9.4-1.7-12.4-5.1c-3-3.4-4.5-8.1-4.5-14.3c0-5.8,1.6-10.5,4.9-14.1c3.3-3.6,7.4-5.5,12.2-5.5
					s8.6,1.6,11.3,4.7c2.7,3.1,4,7.5,4,13.1L791.6,827.1z M785.5,822c0-3.4-0.9-6.1-2.5-8c-1.6-1.9-3.9-2.9-6.8-2.9
					c-2.8,0-5.2,1-7.2,3c-2,2-3.2,4.6-3.6,7.9L785.5,822z"/>
			</g>
		</g>
	</g>
</g>
</svg>
